<svg width="21" height="17" viewBox="0 0 21 17" fill="none" xmlns="http://www.w3.org/2000/svg">
<path d="M12.6095 13.7271C12.3417 14.0264 12.1935 14.4274 12.1969 14.8435C12.2002 15.2597 12.3548 15.6578 12.6274 15.9521C12.9 16.2464 13.2688 16.4133 13.6543 16.4169C14.0398 16.4205 14.4112 16.2606 14.6885 15.9714L20.5695 9.6225C20.8452 9.32485 21 8.9212 21 8.50033C21 8.07945 20.8452 7.6758 20.5695 7.37815L14.6885 1.02922C14.4112 0.740088 14.0398 0.580103 13.6543 0.58372C13.2688 0.587336 12.9 0.754265 12.6274 1.04855C12.3549 1.34284 12.2002 1.74094 12.1969 2.1571C12.1935 2.57327 12.3417 2.97421 12.6095 3.27356L15.9808 6.91309L1.88693 6.91309C1.49699 6.91309 1.12302 7.08032 0.847295 7.37798C0.571566 7.67565 0.416667 8.07936 0.416667 8.50032C0.416667 8.92129 0.571566 9.325 0.847294 9.62267C1.12302 9.92033 1.49699 10.0876 1.88693 10.0876L15.9808 10.0876L12.6095 13.7271Z" fill="#201C18"/>
</svg>
